<svg version="1.1" id="Layer_1" xmlns="http://www.w3.org/2000/svg" xmlns:xlink="http://www.w3.org/1999/xlink" x="0px" y="0px"
	 width="100%" viewBox="0 0 1024 1024" enable-background="new 0 0 1024 1024" xml:space="preserve">
<path fill="#FFFFFF" opacity="1.000000" stroke="none" 
	d="
M870.944885,613.000000 
	C870.952759,650.833008 870.867188,688.166260 870.999512,725.498840 
	C871.101562,754.279663 860.588928,777.384399 835.554932,792.802002 
	C825.443970,799.028992 814.367004,802.366333 802.408081,802.379150 
	C773.408386,802.410095 744.408691,802.419067 715.408997,802.424805 
	C671.252930,802.433533 627.092590,802.059204 582.942444,802.572510 
	C555.779846,802.888245 528.633057,802.481995 501.478912,802.458557 
	C409.824097,802.379456 318.169159,802.408630 226.514267,802.397400 
	C191.266388,802.393066 161.516434,776.359985 156.504623,741.335938 
	C155.910339,737.182983 155.649765,733.073425 155.649796,728.912170 
	C155.651001,584.246521 155.646729,439.580841 155.654556,294.915161 
	C155.656693,255.304611 187.069611,223.667709 226.600845,223.658661 
	C417.599518,223.614914 608.598206,223.616455 799.596863,223.630905 
	C835.990967,223.633667 865.226074,248.965286 870.035400,285.048981 
	C871.151855,293.425110 870.889160,302.013794 870.893982,310.504913 
	C870.951416,411.169922 870.939148,511.834961 870.944885,613.000000 
M774.500000,781.736633 
	C785.657471,781.620728 797.007324,782.780579 807.933777,781.132751 
	C833.467590,777.282043 850.624146,756.006531 850.629456,729.839600 
	C850.658569,585.362671 850.643372,440.885773 850.655945,296.408844 
	C850.656311,291.723999 849.991272,287.122162 848.994751,282.576874 
	C844.474243,261.957916 824.618896,243.932205 797.905884,243.981308 
	C608.270203,244.329987 418.633484,244.163040 228.997116,244.191086 
	C225.178879,244.191650 221.299469,244.197006 217.552658,244.822952 
	C197.036163,248.250443 175.720810,267.804413 175.807022,297.098969 
	C176.230759,441.074432 175.965195,585.051880 175.972717,729.028625 
	C175.973007,734.680725 176.196945,740.304382 177.927628,745.813049 
	C184.382111,766.356995 203.941437,781.929565 227.087433,781.894531 
	C409.224609,781.619141 591.362427,781.737915 774.500000,781.736633 
z"/>
<path fill="#FFFFFF" opacity="1.000000" stroke="none" 
	d="
M499.645630,674.991882 
	C499.646820,557.690430 499.647675,440.886993 499.648621,324.083557 
	C499.648682,316.673767 499.649139,316.666412 506.887848,316.665710 
	C544.878113,316.662201 582.880981,316.046173 620.855469,316.821350 
	C665.994568,317.742767 705.586914,333.010284 736.869934,366.513672 
	C759.731812,390.998230 773.685547,420.369995 779.835022,453.068817 
	C788.279175,497.969208 786.706238,542.509827 770.247253,585.639343 
	C754.915344,625.815247 728.393250,656.013977 688.648376,673.763306 
	C672.260925,681.081543 655.028259,685.532410 637.247314,687.248779 
	C600.531067,690.792969 563.679810,688.308350 526.894409,688.998901 
	C519.732056,689.133362 512.559875,688.862671 505.402313,689.091980 
	C501.235046,689.225525 499.076477,688.068909 499.583557,683.480103 
	C499.874573,680.846558 499.642120,678.155212 499.645630,674.991882 
M720.965088,496.349335 
	C720.689880,483.526367 719.253113,470.858032 716.704834,458.264771 
	C706.738464,409.012726 664.846069,374.512482 614.519287,374.351624 
	C599.687195,374.304199 584.854797,374.319275 570.022583,374.313904 
	C562.309448,374.311127 562.303650,374.319183 562.303955,382.007050 
	C562.307251,459.834778 562.310120,537.662476 562.319580,615.490234 
	C562.321289,629.648376 562.335754,629.742249 576.653259,629.628967 
	C597.090088,629.467224 617.636414,630.987305 637.844727,626.612488 
	C674.032898,618.778198 699.895996,598.517517 712.734375,563.182434 
	C720.466248,541.902100 721.590088,519.679993 720.965088,496.349335 
z"/>
<path fill="#FFFFFF" opacity="1.000000" stroke="none" 
	d="
M370.862976,625.891846 
	C382.889557,616.587646 387.361267,603.759644 389.642670,589.790710 
	C391.072418,581.036438 390.831787,572.208496 390.827393,563.396790 
	C390.789185,486.415161 390.728577,409.433563 390.629486,332.451965 
	C390.624573,328.632812 390.255524,324.809967 389.954071,320.996857 
	C389.761047,318.555756 389.995148,316.674500 393.146912,316.679199 
	C412.955261,316.708649 432.763702,316.694122 452.313873,316.694122 
	C453.888428,318.675293 453.326813,320.581024 453.325378,322.348846 
	C453.257812,406.494720 453.243011,490.640778 453.010193,574.786255 
	C452.941223,599.718689 449.232483,623.899231 435.351166,645.447327 
	C418.351990,671.835449 394.598511,687.288574 363.061859,690.440613 
	C340.573944,692.688171 318.361542,692.046143 297.431976,682.693237 
	C265.025574,668.211609 246.007126,643.214478 240.524948,607.954712 
	C239.411377,600.792603 239.966232,593.673401 239.615372,586.541016 
	C239.455536,583.291870 240.412216,581.681702 244.064377,581.706421 
	C261.059418,581.821350 278.056000,581.768066 295.051575,581.679810 
	C297.874359,581.665161 299.184204,582.551636 299.563690,585.550354 
	C300.605225,593.780945 301.673065,602.023193 305.420197,609.636597 
	C312.260864,623.535400 323.589600,630.723511 338.726105,632.744202 
	C350.195618,634.275330 360.919861,632.934631 370.862976,625.891846 
z"/>
<path fill="#FFFFFF" opacity="1.000000" stroke="none" 
	d="
M760.588257,716.749146 
	C769.863831,716.721680 778.697571,716.778625 787.529663,716.682678 
	C793.552917,716.617126 795.602417,714.516907 795.633362,708.502502 
	C795.687256,698.002930 795.817200,687.499084 795.570435,677.005066 
	C795.470825,672.770630 797.035645,671.383545 801.074890,671.664673 
	C804.724182,671.918701 808.406860,671.813721 812.070129,671.707275 
	C815.075989,671.619934 816.275146,672.946716 816.178589,675.903320 
	C815.765869,688.543701 816.964661,701.210449 815.400085,713.837341 
	C813.715027,727.436584 802.942139,737.301331 789.404053,737.366577 
	C778.940186,737.416992 768.475891,737.376648 757.604309,737.376648 
	C757.604309,731.019226 757.599426,725.087585 757.607483,719.155945 
	C757.609741,717.482605 758.579346,716.798584 760.588257,716.749146 
z"/>
<path fill="#FFFFFF" opacity="1.000000" stroke="none" 
	d="
M262.890442,308.386475 
	C254.583191,308.388184 246.765778,308.339691 238.949310,308.405487 
	C232.896530,308.456482 230.526337,310.743011 230.458221,316.909912 
	C230.342499,327.386688 230.238998,337.871002 230.529602,348.341095 
	C230.640656,352.341858 229.412460,353.426331 225.505005,353.424194 
	C210.653305,353.416046 210.652786,353.542694 210.651779,338.548767 
	C210.651260,331.064392 210.642548,323.579987 210.655334,316.095642 
	C210.683472,299.621399 220.921432,288.651764 237.262695,288.024841 
	C246.064911,287.687134 254.891281,288.029999 263.704132,287.894501 
	C267.158112,287.841400 268.489288,289.219391 268.314850,292.636261 
	C268.128510,296.285767 268.092926,299.963470 268.322418,303.608002 
	C268.558441,307.356384 266.997955,308.829651 262.890442,308.386475 
z"/>
</svg>